<?xml version="1.0" standalone="no"?>
<!DOCTYPE svg PUBLIC "-//W3C//DTD SVG 20010904//EN"
 "http://www.w3.org/TR/2001/REC-SVG-20010904/DTD/svg10.dtd">
<svg version="1.0" xmlns="http://www.w3.org/2000/svg"
 width="5000.000000pt" height="3334.000000pt" viewBox="0 0 5000.000000 3334.000000"
 preserveAspectRatio="xMidYMid meet">

<g transform="translate(0.000000,3334.000000) scale(0.100000,-0.100000)"
fill="#000000" stroke="none">
<path d="M0 16670 l0 -16670 25000 0 25000 0 0 16670 0 16670 -25000 0 -25000
0 0 -16670z m49978 5 l-3 -16645 -24975 0 -24975 0 -3 16645 -2 16645 24980 0
24980 0 -2 -16645z"/>
<path d="M16235 26569 c-209 -25 -410 -130 -564 -295 -230 -245 -343 -590
-343 -1044 0 -341 29 -422 179 -499 71 -36 160 -51 363 -61 107 -5 211 -11
230 -12 32 -2 35 0 33 22 -8 109 -18 760 -15 943 l4 229 21 -7 c172 -51 260
-67 397 -72 155 -6 232 2 358 39 40 11 74 19 76 17 15 -15 48 -224 53 -329 9
-205 -30 -370 -117 -504 -44 -67 -134 -160 -190 -198 -24 -17 -23 -17 58 -17
246 -2 496 63 591 152 73 69 82 134 61 403 -19 233 -73 441 -160 616 -66 132
-119 207 -219 311 -221 229 -518 341 -816 306z"/>
<path d="M15915 24510 c-379 -68 -693 -209 -884 -399 -48 -48 -1431 -1787
-1439 -1809 -1 -5 170 -148 380 -319 211 -171 437 -355 503 -410 l121 -100 -4
-134 -3 -134 243 -115 c134 -63 338 -160 453 -216 116 -56 259 -125 319 -153
l108 -51 147 -5 c80 -3 192 -5 249 -5 l102 0 0 -26 c0 -38 -59 -94 -101 -95
-19 -1 -38 0 -44 1 -24 4 54 -63 174 -150 71 -52 130 -98 130 -101 2 -11 -213
-107 -284 -128 -192 -55 -306 -25 -607 163 -74 46 -86 50 -290 93 -308 63
-440 91 -551 115 -53 12 -100 18 -105 14 -4 -4 -7 -132 -7 -284 0 -253 2 -287
24 -392 41 -201 95 -325 216 -500 135 -195 301 -326 615 -485 320 -161 620
-278 1343 -521 492 -166 734 -252 808 -289 l45 -23 213 -859 c117 -472 300
-1204 405 -1628 l192 -770 513 -3 514 -2 -6 52 c-21 175 -77 919 -77 1015 0
32 21 3 178 -253 308 -500 517 -818 536 -811 6 2 243 81 527 176 283 95 521
176 527 180 9 5 -12 60 -74 192 -47 101 -227 501 -399 889 -902 2031 -1223
2681 -1462 2950 -222 251 -651 580 -1858 1424 -187 131 -349 246 -359 257 -19
18 -19 21 -3 156 10 76 44 305 77 508 33 204 76 494 96 645 19 151 38 285 40
297 4 21 12 17 132 -53 70 -42 174 -103 232 -136 58 -34 181 -106 273 -160 93
-55 170 -98 172 -96 8 8 360 645 535 969 l116 216 -842 527 c-463 291 -851
537 -862 548 l-20 20 -7 -33 c-4 -19 -21 -60 -38 -92 -97 -184 -302 -206 -516
-56 -120 84 -223 230 -254 358 -14 60 -9 59 -162 31z"/>
<path d="M28450 18505 c0 -3 26 -45 58 -93 32 -48 62 -93 66 -100 4 -7 -21 9
-56 36 -140 105 -326 153 -483 123 l-40 -7 92 -47 c145 -74 256 -142 309 -191
l49 -46 -50 22 c-39 18 -69 23 -135 23 -99 0 -155 -22 -224 -88 l-41 -40 71
-12 c40 -7 89 -18 110 -25 120 -39 232 -128 218 -172 -3 -11 -6 -91 -6 -177 0
-173 16 -279 58 -371 25 -55 88 -130 109 -130 6 0 38 20 69 45 92 71 114 60
123 -59 9 -119 -37 -207 -119 -223 -15 -3 -31 -9 -33 -14 -5 -7 445 -430 465
-437 13 -5 197 230 296 380 141 210 242 431 260 569 6 43 2 58 -26 115 -72
147 -381 418 -695 610 -44 26 -86 58 -94 69 -29 41 -140 141 -193 173 -56 34
-158 76 -158 67z"/>
<path d="M34145 18421 c-26 -4 17 -9 120 -13 920 -40 1754 -586 2160 -1413 48
-97 149 -351 288 -720 118 -313 353 -939 522 -1390 169 -451 429 -1142 577
-1535 148 -393 605 -1608 1015 -2700 410 -1092 850 -2264 978 -2605 842 -2240
1037 -2763 1050 -2818 19 -81 19 -264 0 -345 -44 -188 -162 -363 -314 -467
l-68 -47 -2019 11 c-1111 6 -2849 13 -3864 16 -1015 3 -2107 8 -2428 11 l-582
6 117 48 c133 53 293 132 439 215 131 75 424 258 420 262 -14 14 -261 34 -416
35 -243 0 -497 -36 -685 -98 -28 -9 -34 -10 -21 -1 113 71 204 137 268 194
193 172 372 415 498 678 65 137 67 145 37 145 -84 0 -390 -82 -536 -144 -47
-20 -87 -34 -89 -31 -13 13 91 342 143 450 96 198 281 353 497 416 l63 18
-450 -2 c-441 -3 -451 -3 -520 -26 -95 -31 -211 -93 -272 -144 -79 -66 -78
-63 -43 -185 68 -238 84 -340 84 -547 0 -142 -4 -203 -16 -242 -8 -29 -14 -53
-12 -53 2 0 34 23 71 51 103 77 378 237 389 227 5 -6 -117 -215 -192 -330
-239 -362 -517 -659 -829 -883 l-80 -58 -1325 7 c-729 3 -1616 6 -1972 6
l-647 0 -48 41 c-158 136 -257 331 -271 536 l-7 92 -179 -95 c-98 -52 -184
-98 -192 -101 -10 -4 -14 5 -14 33 l0 39 -112 1 c-187 3 -312 44 -415 137 -59
55 -118 160 -129 232 -3 25 -7 45 -9 45 -15 0 -1253 -459 -1288 -478 -99 -53
-171 -164 -183 -280 -6 -49 -4 -62 7 -63 8 0 313 -31 679 -68 l665 -67 -4895
-6 c-2692 -3 -4896 -5 -4897 -4 -2 1 61 24 140 50 249 82 480 206 666 357 116
94 232 209 210 209 -9 0 -907 -139 -1995 -310 l-1979 -309 -2730 -11 c-3272
-12 -5663 -28 -5731 -39 -48 -7 -48 -7 36 -14 854 -70 10564 -106 29110 -107
7984 -1 13908 -12 13945 -25 14 -6 17 -5 10 3 -43 47 -1390 90 -3698 118 -306
4 -556 9 -554 11 2 2 49 12 103 22 54 11 141 29 192 41 l92 22 -42 50 c-524
614 -1212 1846 -2074 3714 -397 862 -876 1969 -1273 2944 l-120 295 -3 -124
-3 -125 -107 285 c-59 156 -517 1375 -1017 2709 -799 2127 -922 2447 -1000
2605 -148 298 -312 527 -546 760 -332 333 -708 565 -1150 711 -270 88 -477
127 -781 144 -99 6 -242 15 -319 20 -152 11 -386 11 -450 1z"/>
<path d="M13440 16309 c-1176 -83 -2120 -649 -2706 -1624 -450 -750 -637
-1720 -513 -2657 126 -951 569 -1802 1225 -2352 394 -330 806 -540 1309 -669
305 -79 535 -107 910 -114 l290 -5 -21 22 c-18 18 -46 26 -145 40 -1074 157
-1949 789 -2438 1760 -368 730 -499 1579 -376 2425 120 823 490 1574 1032
2095 455 437 1011 721 1648 839 394 73 903 88 1245 36 52 -8 96 -13 97 -11 7
7 -312 108 -428 136 -340 81 -723 108 -1129 79z"/>
<path d="M28729 16199 c-268 -21 -553 -136 -775 -313 -29 -22 -439 -284 -913
-581 l-860 -539 38 -71 c32 -59 282 -528 618 -1160 l74 -140 -40 -115 c-36
-104 -178 -515 -342 -985 l-63 -181 31 -44 c17 -25 56 -71 87 -103 l56 -59
-146 -276 c-803 -1528 -1120 -2381 -1309 -3522 -94 -567 -171 -1419 -200
-2190 -3 -85 -8 -178 -11 -206 l-5 -51 68 -20 c156 -47 823 -241 886 -258 37
-10 69 -16 71 -14 2 2 74 326 161 719 86 393 160 718 164 722 4 4 42 -162 85
-370 44 -207 81 -383 84 -390 3 -8 209 530 459 1195 l454 1208 -7 422 -7 423
149 155 c785 822 1235 1444 1415 1955 l37 105 70 26 c88 33 158 73 176 102 21
32 83 414 130 807 114 933 123 1802 26 2493 -44 314 -127 649 -217 877 -46
115 -150 331 -175 361 -16 21 -132 28 -269 18z"/>
<path d="M21048 14833 c-3 -68 -10 -101 -31 -146 -56 -123 -204 -226 -386
-270 -47 -11 -87 -21 -89 -22 -1 -1 18 -98 42 -215 29 -138 51 -222 64 -239
10 -14 39 -35 64 -48 l44 -22 32 -163 c102 -520 141 -891 149 -1413 7 -461
-11 -769 -73 -1195 -154 -1075 -565 -2104 -1186 -2970 -59 -83 -143 -195 -188
-251 -44 -55 -80 -104 -80 -109 0 -8 41 -61 295 -375 439 -544 605 -870 605
-1187 0 -303 -149 -536 -525 -818 -77 -58 -287 -223 -467 -367 -383 -307 -540
-426 -683 -519 -57 -37 -103 -70 -101 -72 8 -8 164 21 237 44 151 47 355 167
594 347 66 50 264 206 440 347 176 140 396 313 488 384 223 172 325 283 398
439 114 244 90 512 -75 832 -104 204 -224 371 -599 834 l-138 170 59 73 c766
950 1251 2132 1391 3393 33 299 43 475 42 805 0 613 -60 1142 -198 1739 -24
107 -32 156 -24 160 6 4 333 119 726 257 393 137 715 253 715 257 0 5 -11 32
-25 62 -39 83 -105 149 -189 190 l-71 36 -575 54 c-316 30 -598 57 -626 60
l-51 6 -5 -88z"/>
<path d="M19236 14527 c-51 -181 -154 -281 -333 -323 -51 -12 -99 -15 -191
-11 -119 5 -122 4 -127 -17 -14 -65 -46 -387 -42 -418 6 -49 38 -91 83 -113
34 -16 94 -16 990 -4 l954 13 0 42 c0 58 -33 161 -71 218 -58 87 -102 112
-541 306 -227 100 -482 213 -566 251 -98 43 -154 63 -156 56z"/>
<path d="M33348 12830 c-196 -35 -365 -134 -479 -277 -77 -97 -121 -191 -158
-343 -18 -69 -70 -237 -117 -375 -47 -137 -112 -329 -145 -425 -33 -96 -80
-242 -104 -325 -237 -817 -104 -1242 431 -1381 122 -32 333 -43 754 -42 273 0
282 1 220 15 -253 56 -407 146 -509 298 -146 218 -157 533 -35 1003 35 135
107 358 281 867 49 143 102 312 117 375 46 192 139 349 266 449 l49 39 -79 41
c-44 23 -114 51 -157 62 -87 22 -262 33 -335 19z"/>
<path d="M16263 11739 c-35 -6 -63 -14 -63 -18 0 -4 19 -18 43 -31 190 -105
435 -353 634 -641 38 -54 71 -98 74 -99 13 0 179 384 179 414 0 22 -153 160
-244 221 -158 105 -298 153 -461 160 -55 2 -128 -1 -162 -6z"/>
<path d="M16556 5484 c-9 -22 -8 -23 13 -17 12 3 17 11 14 19 -7 19 -19 18
-27 -2z"/>
</g>
</svg>
